<mxfile host="app.diagrams.net" modified="2023-02-03T05:11:12.941Z" agent="5.0 (Windows)" etag="0WZn_Xc0Gg_gJ-fRsoA_" version="20.8.16" type="github">
  <diagram name="Page-1" id="gHyUn85hkvVnd7hadv1S">
    <mxGraphModel dx="1434" dy="774" grid="1" gridSize="10" guides="1" tooltips="1" connect="1" arrows="1" fold="1" page="1" pageScale="1" pageWidth="850" pageHeight="1100" math="0" shadow="0">
      <root>
        <mxCell id="0" />
        <mxCell id="1" parent="0" />
        <mxCell id="IbzUHO1GmxUwTkp61orQ-4" style="edgeStyle=orthogonalEdgeStyle;rounded=0;orthogonalLoop=1;jettySize=auto;html=1;entryX=0.5;entryY=0;entryDx=0;entryDy=0;" edge="1" parent="1" source="IbzUHO1GmxUwTkp61orQ-1" target="IbzUHO1GmxUwTkp61orQ-2">
          <mxGeometry relative="1" as="geometry" />
        </mxCell>
        <mxCell id="IbzUHO1GmxUwTkp61orQ-1" value="Start" style="ellipse;whiteSpace=wrap;html=1;" vertex="1" parent="1">
          <mxGeometry x="365" y="30" width="120" height="80" as="geometry" />
        </mxCell>
        <mxCell id="IbzUHO1GmxUwTkp61orQ-5" style="edgeStyle=orthogonalEdgeStyle;rounded=0;orthogonalLoop=1;jettySize=auto;html=1;entryX=0.5;entryY=0;entryDx=0;entryDy=0;" edge="1" parent="1" source="IbzUHO1GmxUwTkp61orQ-2" target="IbzUHO1GmxUwTkp61orQ-3">
          <mxGeometry relative="1" as="geometry" />
        </mxCell>
        <mxCell id="IbzUHO1GmxUwTkp61orQ-2" value="constant pie =3.14" style="shape=parallelogram;perimeter=parallelogramPerimeter;whiteSpace=wrap;html=1;fixedSize=1;" vertex="1" parent="1">
          <mxGeometry x="365" y="140" width="120" height="60" as="geometry" />
        </mxCell>
        <mxCell id="IbzUHO1GmxUwTkp61orQ-7" style="edgeStyle=orthogonalEdgeStyle;rounded=0;orthogonalLoop=1;jettySize=auto;html=1;entryX=0.5;entryY=0;entryDx=0;entryDy=0;" edge="1" parent="1" source="IbzUHO1GmxUwTkp61orQ-3" target="IbzUHO1GmxUwTkp61orQ-6">
          <mxGeometry relative="1" as="geometry" />
        </mxCell>
        <mxCell id="IbzUHO1GmxUwTkp61orQ-3" value="Input r" style="shape=parallelogram;perimeter=parallelogramPerimeter;whiteSpace=wrap;html=1;fixedSize=1;" vertex="1" parent="1">
          <mxGeometry x="365" y="230" width="120" height="60" as="geometry" />
        </mxCell>
        <mxCell id="IbzUHO1GmxUwTkp61orQ-9" style="edgeStyle=orthogonalEdgeStyle;rounded=0;orthogonalLoop=1;jettySize=auto;html=1;entryX=0.5;entryY=0;entryDx=0;entryDy=0;" edge="1" parent="1" source="IbzUHO1GmxUwTkp61orQ-6" target="IbzUHO1GmxUwTkp61orQ-8">
          <mxGeometry relative="1" as="geometry" />
        </mxCell>
        <mxCell id="IbzUHO1GmxUwTkp61orQ-6" value="area=pie*r*r" style="rounded=0;whiteSpace=wrap;html=1;" vertex="1" parent="1">
          <mxGeometry x="365" y="330" width="120" height="60" as="geometry" />
        </mxCell>
        <mxCell id="IbzUHO1GmxUwTkp61orQ-10" style="edgeStyle=orthogonalEdgeStyle;rounded=0;orthogonalLoop=1;jettySize=auto;html=1;" edge="1" parent="1" source="IbzUHO1GmxUwTkp61orQ-8">
          <mxGeometry relative="1" as="geometry">
            <mxPoint x="425" y="540" as="targetPoint" />
          </mxGeometry>
        </mxCell>
        <mxCell id="IbzUHO1GmxUwTkp61orQ-8" value="print area" style="rounded=0;whiteSpace=wrap;html=1;" vertex="1" parent="1">
          <mxGeometry x="365" y="430" width="120" height="60" as="geometry" />
        </mxCell>
        <mxCell id="IbzUHO1GmxUwTkp61orQ-11" value="Stop" style="ellipse;whiteSpace=wrap;html=1;" vertex="1" parent="1">
          <mxGeometry x="365" y="540" width="120" height="80" as="geometry" />
        </mxCell>
      </root>
    </mxGraphModel>
  </diagram>
</mxfile>
